<svg width="1920" height="440" viewBox="0 0 1920 440" fill="none" xmlns="http://www.w3.org/2000/svg">
<path d="M337.089 200.192V13.4362C337.089 6.01698 331.073 0 323.653 0H204.692C197.272 0 191.256 6.01698 191.256 13.4362V172.38C191.255 186.905 185.376 200.811 174.955 210.93C164.911 220.684 151.475 226.117 137.518 226.117C137.082 226.117 136.647 226.109 136.21 226.099L126.453 225.814C100.352 225.047 79.59 203.667 79.5874 177.555V23.2807C79.5874 13.9221 70.2573 7.42957 61.4814 10.6829L8.76478 30.2283C3.49636 32.1821 0 37.2067 0 42.8261V201.022C0 208.441 6.0152 214.456 13.4355 214.456H27.4605C52.1569 214.479 72.8604 233.134 75.4358 257.701L75.4371 257.698L87.4174 371.91C87.9861 377.332 91.7741 381.873 97.0056 383.403L178.989 407.399C187.758 409.964 196.475 403.219 196.192 394.088L192.311 269.025C191.862 254.494 197.321 240.398 207.44 229.963C217.562 219.52 231.481 213.628 246.021 213.628H323.653C331.073 213.628 337.089 207.613 337.089 200.192Z" fill="white"/>
<path d="M519.58 30.2282L466.864 10.6828C458.088 7.4293 448.758 13.922 448.758 23.2805V177.565C448.75 203.673 427.99 225.047 401.894 225.813L349.959 227.337C342.857 227.544 337.145 233.247 336.925 240.348L332.153 394.088C331.869 403.219 340.587 409.963 349.355 407.399L431.339 383.402C436.57 381.873 440.358 377.332 440.927 371.91L452.908 257.69C455.491 233.126 476.191 214.478 500.883 214.456H514.91C522.33 214.456 528.345 208.441 528.345 201.022V42.8258C528.345 37.2066 524.849 32.1819 519.58 30.2282Z" fill="white"/>
<path d="M1173.96 0H1230.22C1231.49 0 1232.52 1.03243 1232.52 2.30417V342.988C1232.52 344.26 1231.49 345.292 1230.22 345.292H1173.96C1172.68 345.292 1171.65 344.26 1171.65 342.988V2.30455C1171.65 1.03268 1172.68 0 1173.96 0Z" fill="white"/>
<path d="M1290.73 0H1347C1348.27 0 1349.3 1.03243 1349.3 2.30417V342.988C1349.3 344.26 1348.27 345.292 1347 345.292H1290.73C1289.46 345.292 1288.43 344.26 1288.43 342.988V2.30455C1288.43 1.03268 1289.46 0 1290.73 0Z" fill="white"/>
<path d="M1519.82 90.123C1445.56 90.123 1391.66 145.215 1391.66 221.117C1391.66 295.798 1446.76 352.112 1519.82 352.112C1592.88 352.112 1647.98 295.798 1647.98 221.117C1647.98 145.215 1594.08 90.123 1519.82 90.123ZM1519.82 296.201C1487.41 296.201 1452.53 272.706 1452.53 221.117C1452.53 169.529 1487.41 146.036 1519.82 146.036C1552.23 146.036 1587.1 169.531 1587.1 221.117C1587.1 272.703 1552.23 296.201 1519.82 296.201Z" fill="white"/>
<path d="M1917.7 96.9379H1863.38C1862.11 96.9379 1861.08 97.9713 1861.08 99.2423V119.276H1859.24V119.319C1841.28 99.0989 1819.74 90.123 1792.9 90.123C1721.32 90.123 1678.46 145.148 1678.46 213.814C1678.46 281.986 1721.32 337.504 1792.9 337.504C1819.45 337.504 1845.43 328.04 1859.23 308.885V308.923H1861.08V323.868C1861.08 344.806 1855.72 359.901 1845.98 369.642C1835.75 380.843 1820.17 387.174 1800.69 387.174C1771.35 387.174 1752.13 373.838 1746.6 354.763C1746.32 353.779 1745.45 353.086 1744.42 353.086H1687.88C1686.5 353.086 1685.39 354.304 1685.56 355.676C1691.2 402.648 1733.27 439.278 1800.69 439.278C1838.68 439.278 1868.87 426.614 1889.32 406.65C1908.8 387.174 1920 359.901 1920 320.461V99.2422C1920 97.9711 1918.97 96.9379 1917.7 96.9379ZM1801.18 281.5C1762.71 281.5 1739.34 252.282 1738.85 213.814C1739.34 175.342 1762.71 146.121 1801.18 146.121C1840.14 146.121 1863.51 175.342 1863.03 213.814C1863.51 252.282 1840.14 281.5 1801.18 281.5Z" fill="white"/>
<path d="M1017.22 96.9386H959.663C958.563 96.9386 957.617 97.7165 957.403 98.7947L922.598 274.112H920.43L871.418 98.6242C871.14 97.6289 870.232 96.9385 869.199 96.9385H800.364C799.331 96.9385 798.424 97.6266 798.145 98.6197L748.855 274.112H747.012L712.162 98.7947C711.948 97.7164 711.002 96.9386 709.902 96.9386H652.392C650.92 96.9386 649.826 98.3015 650.142 99.7385L703.688 343.484C703.92 344.54 704.856 345.293 705.938 345.293H785.028C786.073 345.293 786.987 344.589 787.255 343.58L833.75 168.122H835.862L882.357 343.58C882.625 344.589 883.539 345.293 884.585 345.293H963.674C964.756 345.293 965.692 344.54 965.924 343.484L1019.47 99.7385C1019.79 98.3015 1018.69 96.9386 1017.22 96.9386Z" fill="white"/>
<path d="M1057.18 96.9385H1113.44C1114.71 96.9385 1115.74 97.9708 1115.74 99.2424V342.988C1115.74 344.26 1114.71 345.293 1113.44 345.293H1057.18C1055.9 345.293 1054.87 344.26 1054.87 342.989V99.2429C1054.87 97.971 1055.9 96.9385 1057.18 96.9385Z" fill="white"/>
<path d="M1056.2 0H1114.41C1115.68 0 1116.72 1.03243 1116.72 2.30417V60.0351C1116.72 61.3057 1115.68 62.3374 1114.41 62.3374H1056.2C1054.93 62.3374 1053.9 61.3049 1053.9 60.0332V2.30443C1053.9 1.03256 1054.93 0 1056.2 0Z" fill="white"/>
</svg>
